<?xml version="1.0" standalone="no"?>
<!DOCTYPE svg PUBLIC "-//W3C//DTD SVG 1.1//EN" "http://www.w3.org/Graphics/SVG/1.1/DTD/svg11.dtd" >
<svg xmlns="http://www.w3.org/2000/svg">
<metadata>
Created by FontForge 20120731 at Tue Jun 14 16:22:24 2016
 By admin
</metadata>
<defs>
<font id="iconfont" horiz-adv-x="1024" >
  <font-face 
    font-family="iconfont"
    font-weight="500"
    font-stretch="normal"
    units-per-em="1024"
    panose-1="2 0 6 3 0 0 0 0 0 0"
    ascent="896"
    descent="-128"
    x-height="792"
    bbox="0 -128 1047 896"
    underline-thickness="50"
    underline-position="-100"
    unicode-range="U+0078-E617"
  />
<missing-glyph horiz-adv-x="374" 
d="M34 0v682h272v-682h-272zM68 34h204v614h-204v-614z" />
    <glyph glyph-name=".notdef" horiz-adv-x="374" 
d="M34 0v682h272v-682h-272zM68 34h204v614h-204v-614z" />
    <glyph glyph-name=".null" horiz-adv-x="0" 
 />
    <glyph glyph-name="nonmarkingreturn" horiz-adv-x="341" 
 />
    <glyph glyph-name="x" unicode="x" horiz-adv-x="1001" 
d="M281 543q-27 -1 -53 -1h-83q-18 0 -36.5 -6t-32.5 -18.5t-23 -32t-9 -45.5v-76h912v41q0 16 -0.5 30t-0.5 18q0 13 -5 29t-17 29.5t-31.5 22.5t-49.5 9h-133v-97h-438v97zM955 310v-52q0 -23 0.5 -52t0.5 -58t-10.5 -47.5t-26 -30t-33 -16t-31.5 -4.5q-14 -1 -29.5 -0.5
t-29.5 0.5h-32l-45 128h-439l-44 -128h-29h-34q-20 0 -45 1q-25 0 -41 9.5t-25.5 23t-13.5 29.5t-4 30v167h911zM163 247q-12 0 -21 -8.5t-9 -21.5t9 -21.5t21 -8.5q13 0 22 8.5t9 21.5t-9 21.5t-22 8.5zM316 123q-8 -26 -14 -48q-5 -19 -10.5 -37t-7.5 -25t-3 -15t1 -14.5
t9.5 -10.5t21.5 -4h37h67h81h80h64h36q23 0 34 12t2 38q-5 13 -9.5 30.5t-9.5 34.5q-5 19 -11 39h-368zM336 498v228q0 11 2.5 23t10 21.5t20.5 15.5t34 6h188q31 0 51.5 -14.5t20.5 -52.5v-227h-327z" />
    <glyph glyph-name="uniE600" unicode="&#xe600;" 
d="M980 491l-406 321q-26 21 -62 21t-62 -21l-406 -321q-10 -8 -11.5 -21t6.5 -23.5t21 -12t23 6.5l13 11v-388q0 -40 34.5 -68t74.5 -28h640q37 0 60 26.5t23 69.5v386l12 -9q8 -7 20 -7q15 0 25 13q8 10 6.5 23t-11.5 21zM480 32v177q0 14 32 14t32 -14v-177h-64zM864 64
q0 -32 -19 -32h-236h-1v1v176q0 31 -25 54.5t-71 23.5t-71 -23.5t-25 -54.5v-176v-1h1h-212q-15 0 -30 10.5t-15 21.5v438l329 260q9 7 22.5 7t22.5 -7l330 -261v-437z" />
    <glyph glyph-name="uniE601" unicode="&#xe601;" horiz-adv-x="1188" 
d="M932 341v-340h-734v733h341v52h-341q-21 0 -36.5 -15t-15.5 -37v-733q0 -22 15.5 -37.5t36.5 -15.5h734q21 0 36.5 15.5t15.5 37.5v340h-52zM657 489h-380v68h380v-68zM811 300h-535v67h535v-67zM842 107h-565v67h565v-67zM1034 652h-20q-15 0 -19 14l-11 25q-7 13 4 24
l14 14q4 4 4 9.5t-4 8.5l-24 24q-4 4 -9.5 4t-8.5 -4l-15 -14q-10 -10 -23 -3l-26 10q-5 2 -9.5 7.5t-4.5 12.5v20q0 5 -4 9t-9 4h-34q-5 0 -9 -4t-4 -9v-20q0 -15 -14 -20l-25 -10q-14 -7 -24 3l-14 14q-4 4 -9.5 4t-9.5 -4l-24 -24q-4 -3 -4 -8.5t4 -9.5l14 -14
q11 -11 4 -24l-11 -25q-4 -14 -19 -14h-20q-5 0 -9 -4t-4 -10v-33q0 -6 4 -10t9 -4h20q15 0 19 -14l11 -25q7 -13 -4 -24l-14 -14q-4 -4 -4 -9.5t4 -8.5l24 -24q4 -4 9.5 -4t9.5 4l14 14q10 10 24 3l25 -10q14 -5 14 -20v-20q0 -5 4 -9t9 -4h34q5 0 9 4t4 9v20q0 15 14 20
l26 10q13 7 23 -3l15 -14q3 -4 8.5 -4t9.5 4l24 24q4 3 4 8.5t-4 9.5l-14 14q-11 11 -4 24l11 25q2 6 7.5 10t11.5 4h20q6 0 9.5 4t3.5 10v33q0 6 -3.5 10t-9.5 4zM852 547q-31 0 -53 21.5t-22 53t22 53.5t53 22t53 -22t22 -53.5t-22 -53t-53 -21.5zM1165 745z" />
    <glyph glyph-name="uniE602" unicode="&#xe602;" 
d="M79 -26h-37q-8 0 -13.5 5.5t-5.5 13.5v36q-4 55 37 106q24 30 61 51q43 24 99 34h1q57 8 91 22q-1 7 -1 16q-2 22 -11 42t-17.5 30.5t-23.5 28.5q-17 19 -24 29q-31 45 -33 97v1q0 25 13 44q-9 61 0 119q4 56 53 100q-2 11 0 22q9 48 73 51q3 0 8 1h2q8 0 14 -5t6.5 -13
t-5 -13.5t-12.5 -6.5h-3h-8q-34 -2 -38 -22q-1 -7 1 -15q4 -10 -5 -19l-7 -7q-6 -4 -12.5 -11.5t-17 -27t-11.5 -37.5q0 -1 -1 -2q-9 -58 1 -116q2 -9 -4 -16q-10 -11 -10 -26q3 -42 27 -77q5 -8 21 -25q17 -20 26.5 -32.5t20.5 -37.5t14 -53q2 -21 1 -31q-1 -8 -7 -13
q-12 -10 -46 -19.5t-69 -14.5q-94 -16 -138 -71q-32 -40 -28 -81v-1v-19h18q8 0 13.5 -5.5t5.5 -13t-5.5 -13t-13.5 -5.5zM751 -80q-5 0 -10 3q-34 22 -91 24h-21l-33 -1h-438q-7 0 -12.5 5.5t-5.5 13.5v21q-2 37 20 75q19 34 55 57q44 28 109 40h1q32 4 66 13
q25 7 41.5 14.5t19 10t3.5 4.5q0 2 1 4q2 10 -1 37q-2 30 -14.5 57.5t-22.5 41.5t-29 35q-17 19 -23 28q-28 40 -30 86v1q0 18 17 34v0q0 2 -1 6v3q-12 65 -1 130q1 22 13 44.5t19.5 30.5t13.5 12q11 10 15 17l1 1q0 1 -1 2q-6 14 -4 24q4 18 24 23q7 2 20 2l1 1q42 2 66 0
q47 -4 87 -13t63.5 -18.5t42 -21.5t24 -16.5t8.5 -7.5v-1q20 -24 30 -59q2 -10 4 -19q6 -37 3 -91q-1 -19 -4 -43l-1 -4l3 -3q9 -10 12 -18q2 -7 2 -15v-1q-3 -46 -30 -86q-6 -9 -23 -28q-19 -21 -29.5 -35t-22.5 -41.5t-15 -57.5q-2 -27 -1 -37l2 -4q0 -2 3 -4.5t19 -10
t42 -14.5q34 -9 66 -13h1q65 -13 109 -41q36 -24 56 -57q21 -37 19 -74v-21q0 -8 -5.5 -13.5t-13.5 -5.5h-119q-1 0 -3 1h-27q-8 0 -13.5 5.5t-5.5 13t5.5 13t13.5 5.5h49h3h78v3v2q2 26 -15 54q-15 25 -44 44q-37 23 -94 34q-35 5 -71 14q-77 20 -88 52q-7 13 -3 57
q3 36 17.5 68.5t26 48t32.5 39.5q15 17 20 25q20 29 23 66v3l-3 3q-3 3 -4 5q-11 13 -8 34q3 22 4 39q2 50 -3 83q0 1 -1 1q0 6 -2 15q-7 26 -22 44q-13 13 -43 28q-63 29 -157 37q-22 1 -61 -1h-1h-6q5 -13 2 -23q-2 -6 -6 -12q-7 -12 -23 -25q-32 -29 -33 -61v-3
q-10 -58 1 -118v-2q5 -27 -11 -41v-1q-4 -3 -5 -4v-1q3 -37 23 -66q5 -8 21 -25q20 -24 32 -39.5t26.5 -48t17.5 -68.5q4 -44 -3 -57q-12 -32 -89 -52q-35 -9 -71 -14q-57 -10 -94 -34q-29 -19 -44 -45q-17 -29 -15 -54v-1v-3h418h34h21q68 -1 111 -30q7 -4 8.5 -11.5
t-2.5 -14.5q-6 -8 -16 -8zM667 210l2 -2z" />
    <glyph glyph-name="uniE603" unicode="&#xe603;" 
d="M863 -128h-702q-27 0 -45.5 18.5t-18.5 45.5v801q0 26 18.5 43.5t45.5 17.5h223v-64h-191q-13 0 -22.5 -9.5t-9.5 -22.5v-734q0 -14 9.5 -23t22.5 -9h638q13 0 22.5 9t9.5 23v734q0 13 -9.5 22.5t-22.5 9.5h-191v64h223q27 0 45.5 -17.5t18.5 -43.5v-801
q0 -27 -18.5 -45.5t-45.5 -18.5zM416 511h319v-64h-319v64zM416 351l319 1v-65h-319v64zM735 129l-319 -1v64h319v-63zM289 511l63 1v-65h-63v64zM289 353l63 -2v-64h-63v66zM352 128l-63 2v62h63v-64zM703 700q14 0 23 -9t9 -23v-30h-446v30q0 14 9 23t23 9h95q1 46 1 97
q0 41 27.5 70t67.5 29t68.5 -30t28.5 -69l-1 -97h95zM512 800q-13 0 -22.5 -10t-9.5 -24q0 -13 9.5 -22.5t22.5 -9.5t22.5 9.5t9.5 22.5t-9.5 23.5t-22.5 10.5z" />
    <glyph glyph-name="uniE604" unicode="&#xe604;" 
d="M707 774h-195v12q0 46 -32 78t-78 32h-24q-46 0 -78 -32t-32 -78v-12h-122q-20 0 -34 -14.5t-14 -34.5v-804q0 -20 14 -34.5t34 -14.5h732q20 0 34 14.5t14 34.5v658zM731 681l120 -102h-120v102zM317 786q0 26 17.5 43.5t43.5 17.5h24q26 0 43.5 -17.5t17.5 -43.5v-12
h-146v12zM853 -79h-683q-24 0 -24 24v756q0 8 7 16t17 8h98v-304q0 -46 32 -78t78 -32h24q46 0 78 32t32 78v158q0 11 -7 17.5t-17.5 6.5t-17.5 -6.5t-7 -17.5v-158q0 -26 -17.5 -43.5t-43.5 -17.5h-24q-26 0 -43.5 17.5t-17.5 43.5v304h146h49h170v-195h195q1 -112 1 -585
q0 -24 -25 -24z" />
    <glyph glyph-name="uniE605" unicode="&#xe605;" 
d="M988 -89q-7 -7 -16 -7t-16 7l-116 116q17 14 32 31l116 -116q6 -6 6 -15.5t-6 -15.5zM652 2q-102 0 -174 71.5t-72 173.5t72 173.5t173.5 71.5t173.5 -71.5t72 -173.5t-72 -173.5t-173 -71.5zM652 448q-83 0 -142 -59t-59 -142t59 -142t142 -59t142 59t59 142t-59 142
t-142 59zM495 247q0 11 2 22h177v-44h-177q-2 11 -2 22zM652 403q10 0 22 -2v-42h-132q46 44 110 44zM183 225v44h180q-1 -15 -1 -22t1 -22h-180zM384 359h-201v44h224q-14 -22 -23 -44zM183 671h223v-45h-223v45zM406 492h-223v45h223v-45zM785 537h-178q-37 0 -63 26
t-26 63v201h-402q-18 0 -31.5 -13t-13.5 -31v-670q0 -18 13.5 -31t31.5 -13h307q20 -26 43 -45h-350q-37 0 -63 26t-26 63v670q0 37 26 63t63 26h335h12h23h62l276 -297l-2 -8l8 -8v-10v-56v-18q-21 17 -45 29v33zM562 790v-164q0 -18 13.5 -31t31.5 -13h151z" />
    <glyph glyph-name="uniE606" unicode="&#xe606;" 
d="M934 480h-70q-3 6 -6.5 19t-6.5 19l-6 7q-10 19 -19 38l51 51q6 7 6 19.5t-6 19.5l-103 102q-19 19 -38 0l-45 -51q-19 10 -38 19l-7 7q-6 0 -19 3t-19 3v70q0 10 -8 18t-18 8h-140q-10 0 -18 -8t-8 -18v-70q-13 0 -38 -13h-13q-26 -13 -32 -19l-51 45q-5 9 -17 9t-22 -9
l-96 -96q-13 -13 -13 -19q0 -13 7 -20l51 -51q-10 -9 -19 -38v-7q-13 -25 -13 -38h-70q-10 0 -18 -8t-8 -18v-140q0 -10 8 -18t18 -8h70q3 -6 6.5 -19t6.5 -19l6 -7l19 -38l-51 -51q-19 -20 0 -39l103 -102q19 -19 38 0l45 51l38 -19l7 -7q6 -3 19 -6t19 -6v-71q0 -9 8 -17
t18 -8h140q10 0 18 8t8 17v71q6 3 41.5 15.5t41.5 16.5l51 -52q20 -19 39 0l102 103q19 19 0 38l-51 58q8 15 20 45t12 38h70q10 0 18 8t8 18v140q0 10 -8 18t-18 8zM922 320h-90v-13q-3 -6 -19 -47.5t-19 -48.5l-7 -13l64 -64l-89 -89l-64 64l-13 -7q-17 -8 -52.5 -23
t-43.5 -15h-13v-90h-128v90h-13q-6 3 -47.5 19t-48.5 19l-13 7l-64 -64l-89 89l64 64l-7 13q-8 17 -23 52.5t-15 43.5v13h-90v128h90v13q0 8 15 43.5t23 52.5l7 13l-64 64l89 89l64 -64l13 7q17 8 52.5 23t43.5 15h13v90h128v-90h13q6 -3 47.5 -19t48.5 -19l13 -7l64 64
l89 -89l-64 -64l7 -13q8 -17 23 -52.5t15 -43.5v-13h90v-128zM960 314v70v70v0q0 3 -0.5 7.5t-7 11.5t-18.5 7h-70q0 6 -3 13t-9 18.5t-7 13.5q-13 25 -13 32l45 45q11 11 11 22t-6 17l-5 5l-7 7l-83 83l-6 6v0h-7q-19 0 -32 -6l-51 -32q-6 6 -19 6q-38 20 -64 26v70v7v6
q-13 13 -19 13v0h-77h-70v0q-13 0 -26 -13v-6v-7v-70q-19 -4 -43.5 -14.5t-26.5 -11.5q-3 0 -6.5 -1.5t-4.5 -2.5l-2 -2l-45 45q-19 19 -32 6h-6v0l-7 -6l-89 -90q-3 -2 -6.5 -6t-4.5 -15.5t11 -23.5l38 -51q-13 -13 -13 -32q-1 -3 -5 -10.5t-6.5 -12t-5 -11t-2.5 -11.5h-70
q-12 -2 -18.5 -10t-6.5 -15l-1 -7v0v-70v-70v0q0 -3 0.5 -7.5t7 -11.5t18.5 -7h70q3 -6 9.5 -22t9.5 -23q13 -25 13 -32l-45 -45q-11 -11 -11 -22t5 -16.5t6 -5.5l7 -7l83 -83l6 -6v0h7q19 0 32 6l51 32q6 -6 19 -6q38 -20 64 -26v-70v-7v-6q0 -13 19 -13v0h77h70v0
q6 0 9 1.5t6 5.5t5 6v6v7v70q25 6 64 26q6 6 19 6l45 -45q9 -9 15.5 -10t16.5 4h6v0l6 6l84 83l6 7q3 2 6.5 6t4 15.5t-10.5 23.5l-32 51q13 13 13 32q3 6 9.5 22t9.5 23h70q12 2 18.5 10t6.5 15l1 7v0zM512 -26h-64v84q-45 12 -83 25q-26 13 -32 19h-7v0l-64 -57l-83 83
l-6 6l64 64q-7 20 -19 39q-9 17 -17 37.5t-12 33.5l-3 12h-84v64v64h84q12 45 32 83l19 39l-64 64l6 6l83 83l64 -57v0h7q6 6 32 19l83 25v84h64h64v-84q45 -12 83 -25q26 -13 32 -19h7v0l64 57l76 -83l7 -6l-64 -64q6 -20 19 -39q26 -38 38 -83h84v-64v-64h-84
q-12 -45 -32 -83l-19 -39l64 -64l-6 -6l-83 -83l-64 57v0h-7q-6 -6 -32 -19l-83 -25v-84h-64zM512 576q-82 0 -137 -55t-55 -137t55 -137t137 -55t137 55t55 137t-55 137t-137 55zM512 230q-62 0 -108 46t-46 108t46 108t108 46t108 -46t46 -108t-46 -108t-108 -46z" />
    <glyph glyph-name="uniE607" unicode="&#xe607;" 
d="M849 -43h-277v286h342v-221q0 -27 -19 -46t-46 -19zM572 577q-32 9 -40 16q0 1 -0.5 1.5t-1.5 0.5v-1q-1 0 -1 -1q-13 -12 -28 -16v-263h-360v227q0 27 19 46t46 19h151q-28 15 -47 33q-45 42 -52 95t28 85q29 28 75 28q66 0 119 -50q31 -29 50 -69q20 41 51 69
q53 50 119 50q45 0 75 -28q35 -32 27.5 -85t-52.5 -95q-19 -18 -46 -33h145q27 0 46 -19t19 -46v-227h-342v263zM435 748q-34 32 -74 32q-20 0 -30 -9q-8 -7 -8 -21q0 -33 33 -63q21 -20 53 -34t58 -14q14 0 17 3q5 11 -8.5 46t-40.5 60zM578 641l2 -1q2 0 5.5 -0.5
t7.5 -0.5q26 0 58 14t54 34q32 30 32 62q0 15 -8 22q-10 9 -29 9q-40 0 -74 -32q-28 -25 -41 -60t-7 -47zM501 -43h-295q-27 0 -46 19t-19 46v221h360v-286z" />
    <glyph glyph-name="uniE608" unicode="&#xe608;" 
d="M942 0h-816v816q0 9 -6.5 15t-15.5 6t-15.5 -6t-6.5 -15v-838q0 -9 6.5 -15.5t15.5 -6.5h838q9 0 15 6.5t6 15.5t-6 15.5t-15 6.5zM205 191q10 0 17 8l165 209l205 -205q8 -7 17 -6q10 0 16 8l258 345q6 7 4.5 16t-8.5 14.5t-16 4t-15 -8.5l-243 -325l-204 205
q-7 7 -17 6q-9 -1 -15 -8l-181 -228q-6 -7 -5 -16t8 -14t14 -5z" />
    <glyph glyph-name="uniE609" unicode="&#xe609;" 
d="M930 408h-762l359 319q9 8 9.5 20.5t-7.5 22t-20.5 10t-21.5 -7.5l-412 -366q-10 -9 -10 -22.5t10 -22.5l412 -366q8 -8 20 -8q13 0 22 10q8 10 7.5 22t-9.5 21l-347 308h750q12 0 21 9t9 21.5t-9 21t-21 8.5z" />
    <glyph glyph-name="uniE60A" unicode="&#xe60a;" 
d="M559 851q86 -9 163.5 -48t136.5 -103q58 -63 90 -144q32 -83 32 -172q0 -96 -37 -183q-34 -82 -100 -149q-67 -66 -149 -100q-87 -37 -183 -37q-89 0 -172 32q-81 32 -144 90q-64 59 -103 136.5t-48 163.5q-2 19 10.5 33t32.5 14q16 0 28 -11t14 -27q7 -71 39 -134.5
t85 -111.5q51 -48 117 -73q68 -27 141 -27q78 0 149 30q68 28 123 82q54 55 82 123q30 71 30 149q0 73 -27 141q-25 66 -73 117q-48 53 -111.5 85t-134.5 39q-16 2 -27 14t-11 28q0 13 5 22t13 13.5t15 6t14 1.5zM85 853h256q18 0 30.5 -12.5t12.5 -30t-12.5 -30
t-30.5 -12.5h-153l354 -354q13 -12 13 -30t-12.5 -30.5t-30.5 -12.5t-30 13l-354 354v-153q0 -18 -12.5 -30.5t-30 -12.5t-30 12.5t-12.5 30.5v256q0 17 12.5 29.5t29.5 12.5z" />
    <glyph glyph-name="uniE60B" unicode="&#xe60b;" 
d="M929 52h-82v83q0 5 -3.5 8.5t-8.5 3.5h-30q-5 0 -8.5 -3.5t-3.5 -8.5v-83h-82q-5 0 -8.5 -3.5t-3.5 -8.5v-31q0 -4 3.5 -7.5t8.5 -3.5h82v-83q0 -5 3.5 -8.5t8.5 -3.5h30q5 0 8.5 3.5t3.5 8.5v83h82q4 0 7.5 3.5t3.5 7.5v31q0 5 -3.5 8.5t-7.5 3.5v0v0zM810 212
q10 12 9.5 28t-11.5 27q-63 61 -144 92q51 37 80.5 95t29.5 125q0 112 -76 191t-184 79t-184 -79t-76 -191q0 -67 29.5 -125t80.5 -95q-124 -48 -202 -162t-78 -255q0 -16 10.5 -27.5t26 -11.5t26.5 11.5t11 27.5q0 98 46 182t126 133.5t175 52.5h9h9q136 -4 234 -99
q12 -11 27 -10.5t26 11.5v0zM522 387h-8h-8q-74 3 -126 59t-52 133q0 80 54.5 136.5t131.5 56.5t131.5 -56.5t54.5 -136.5q0 -77 -52 -133t-126 -59v0z" />
    <glyph glyph-name="uniE60C" unicode="&#xe60c;" 
d="M512 896q-133 0 -226.5 -93.5t-93.5 -226.5q0 -90 33 -195.5t80 -192t94 -160t80 -114.5l33 -42q13 16 34.5 43.5t77 111t97.5 164.5t76.5 188t34.5 197q0 133 -93.5 226.5t-226.5 93.5zM512 380q-81 0 -138.5 57.5t-57.5 138.5t57.5 138.5t138.5 57.5t138.5 -57.5
t57.5 -138.5t-57.5 -138.5t-138.5 -57.5zM388 576q0 51 36.5 87.5t87.5 36.5t87.5 -36.5t36.5 -87.5t-36.5 -87.5t-87.5 -36.5t-87.5 36.5t-36.5 87.5z" />
    <glyph glyph-name="uniE60D" unicode="&#xe60d;" horiz-adv-x="1028" 
d="M515.5 -96q-97.5 0 -186.5 38t-153 102.5t-102 153.5t-38 186t38 186t102 153.5t153 102.5t186.5 38t186.5 -38t153 -102.5t102.5 -153.5t38.5 -186t-38.5 -186t-102.5 -153.5t-153 -102.5t-186.5 -38zM516 822q-89 0 -170.5 -34.5t-140 -93.5t-93.5 -140t-35 -170
t35 -170t93.5 -140t140 -93.5t170.5 -34.5t170 34.5t139.5 93.5t93.5 140t35 170t-35 170t-93.5 140t-139.5 93.5t-170 34.5zM735 366q-6 -6 -15 -6h-408q-9 0 -15 6t-6 14.5t6 14.5t15 6h408q9 0 15 -6t6 -14.5t-6 -14.5zM530 160q-6 -6 -14.5 -6t-14.5 6t-6 15v418
q0 9 6 15t14.5 6t14.5 -6t6 -15v-418q0 -9 -6 -15z" />
    <glyph glyph-name="uniE60E" unicode="&#xe60e;" 
d="M512 111q-14 0 -24 10l-341 341q-17 16 -8 37.5t32 21.5h170v307q0 14 10 24t24 10h274q14 0 24 -10t10 -24v-307h170q23 0 32 -21.5t-8 -37.5l-341 -341q-10 -10 -24 -10zM253 452l259 -259l259 259h-122q-15 0 -25 10t-10 24v308h-204v-308q0 -14 -10 -24t-25 -10h-122
zM990 -94h-956q-14 0 -24 10t-10 24t10 24t24 10h956q14 0 24 -10t10 -24t-10 -24t-24 -10z" />
    <glyph glyph-name="uniE60F" unicode="&#xe60f;" 
d="M809 13h-594q-17 0 -29.5 12.5t-12.5 30t12.5 30t29.5 12.5h594q17 0 29.5 -12.5t12.5 -30t-12.5 -30t-29.5 -12.5zM512 214q-18 0 -30 12t-12 30v456q0 18 12 30.5t30 12.5t30 -12.5t12 -30.5v-456q0 -18 -12 -30t-30 -12zM512 155q-15 0 -27 10l-273 222
q-14 11 -16 28.5t9.5 31t29 15.5t30.5 -9l247 -201l247 201q13 11 30.5 9t28.5 -15.5t9.5 -31t-15.5 -28.5l-273 -222q-12 -10 -27 -10z" />
    <glyph glyph-name="uniE610" unicode="&#xe610;" 
d="M948 -7l-207 207q91 108 91 248q0 159 -112.5 271.5t-271.5 112.5t-271.5 -112.5t-112.5 -271.5t112.5 -271.5t271.5 -112.5q140 0 248 91l207 -207q10 -11 24 -11.5t23.5 9t9 23.5t-11.5 24zM448 128q-133 0 -226.5 93.5t-93.5 226.5t93.5 226.5t226.5 93.5t226.5 -93.5
t93.5 -226.5t-93.5 -226.5t-226.5 -93.5z" />
    <glyph glyph-name="uniE611" unicode="&#xe611;" 
d="M672 511q13 0 22.5 -9.5t9.5 -22.5t-9 -23l-160 -161q-15 -15 -35 -7q-1 1 -2 1q-5 3 -8 6v0l-161 160q-9 9 -9 22.5t9.5 23t22.5 9.5z" />
    <glyph glyph-name="uniE612" unicode="&#xe612;" 
d="M582 749l-441 -442l-45 -243l243 45l442 441q19 20 19 48.5t-19 47.5l-103 103q-19 19 -47.5 19t-48.5 -19zM717 563l-58 -51l-115 115l51 51q15 15 36.5 15t40.5 -15l38 -38q19 -14 20.5 -38.5t-13.5 -38.5zM211 294l295 295l115 -115l-295 -295l-153 -32zM928 0h-832
q-14 0 -23 9t-9 23t9 23t23 9h832q14 0 23 -9t9 -23t-9 -23t-23 -9z" />
    <glyph glyph-name="uniE613" unicode="&#xe613;" 
d="M1002 416l-39 -22q-18 -11 -32 7l-161 271q-5 7 -2.5 16.5t10.5 14.5l39 22q18 11 31 -7l161 -271q6 -9 3.5 -18t-10.5 -13zM878 250q0 -7 -6 -13.5t-20 -17t-21 -15.5q-9 -9 -39.5 -39t-64 -64.5t-35.5 -35.5q-10 -11 -33 -17.5t-35 -4.5q-10 0 -35.5 -10t-32.5 -15
q-3 -1 -20.5 0t-30.5 2t-17 -2q-6 -5 -22.5 -14t-24.5 -8q-24 6 -22 47q-1 6 -14.5 6t-32 -3t-21.5 -3q-9 0 -15.5 13t-6.5 33q0 11 -12.5 11.5t-30 0.5t-25.5 10q-22 30 -22 46q-1 4 -30.5 7.5t-37.5 14.5q-6 8 -7.5 15.5t4 17.5t9.5 16t16 19q17 22 18 33.5t-18 35.5
q-12 13 -22 23t-17 16.5t-8 6.5q-3 3 10 13l12 9q339 -317 346 -322q6 -3 35.5 -3t33.5 3q2 2 -18 22.5t-47 45t-28 25.5q-5 3 -2.5 12.5t9 13t15.5 -3.5q93 -80 115 -93q27 -16 46 0q25 25 0 46q-15 12 -73.5 60t-65.5 55q-5 5 -2 13t9.5 11t14.5 -2q6 -4 38 -30.5
t64.5 -54t36.5 -30.5q8 -8 22 -9t24 9q21 26 0 47q-11 11 -81.5 71.5t-79.5 67.5q-5 3 -2 11.5t9.5 12.5t14.5 -2q10 -7 84 -72t77 -67q27 -17 46 0q1 0 3 2q8 6 12 10.5t7.5 13.5t-2 19.5t-20.5 22.5q-65 55 -253 229q-16 15 -31 17t-24 -3t-13.5 -13.5t-57.5 -59.5
t-57 -55q-8 -8 -18.5 -9.5t-19 6t-8.5 24.5v93q0 17 22 46q10 15 5.5 18.5t-27.5 3.5h-47q-4 0 -6.5 12t-0.5 23.5t7 11.5h161q7 0 38 11t55 11q27 0 72 -8t67 -14l14 -3q10 -3 14 -5t12 -6.5t14.5 -12.5t13.5 -20q10 -16 56.5 -102t58.5 -105q9 -12 14 -43t6.5 -51.5
t1.5 -34.5zM95 384q-12 -19 -32 -7l-39 22q-19 11 -7 31l159 278q11 20 31 8l39 -22q20 -12 8 -32z" />
    <glyph glyph-name="uniE614" unicode="&#xe614;" 
d="M0 461v-175q0 -26 18.5 -45t45.5 -19h165l-15 6l255 -256q23 -22 45 -13t22 41v747q0 32 -22 41t-45 -14l-255 -256l15 7h-165q-27 0 -45.5 -19t-18.5 -45zM229 482h9l6 6l255 256q3 3 5 4q-3 -1 -7 0.5t-5 4.5q1 -2 1 -6v-747q0 -4 -1 -6q1 3 5 4.5t7 0.5q-2 0 -5 3
l-255 256l-6 7h-9h-165q-9 0 -15 6t-6 15v175q0 9 6 15t15 6h165zM821 360.5q0 89.5 -59.5 153t-143.5 63.5q-9 0 -15 -6.5t-6 -15.5t6 -15t15 -6q66 0 113 -51t47 -123t-47 -122.5t-113 -50.5q-9 0 -15 -6.5t-6 -15.5t6 -15t15 -6q84 0 143.5 63.5t59.5 153zM1003 369
q0 117 -67.5 215t-179.5 147q-8 3 -16 0t-11.5 -11t-0.5 -16.5t11 -11.5q101 -44 161 -131.5t60 -191.5q0 -100 -54.5 -184t-147.5 -131q-8 -4 -10.5 -12t1.5 -16t12 -11t16 1q104 52 165 146.5t61 206.5z" />
    <glyph glyph-name="uniE615" unicode="&#xe615;" 
d="M928 166h-128v128q0 15 -9 23.5t-23 8.5t-23 -8.5t-9 -23.5v-128h-128q-14 0 -23 -8.5t-9 -23t9 -23.5t23 -9h128v-128q0 -14 9 -23t23 -9t23 9t9 23v128h128q14 0 23 9t9 23.5t-9 23t-23 8.5zM659 -58q-9 0 0 0q-51 -6 -147 -6q-87 0 -150 5t-119.5 18t-85.5 39.5
t-29 65.5q0 134 112.5 227t271.5 93q87 0 173 -32h6q15 0 23.5 9t8.5 23q0 19 -25 32q-7 3 -23 9.5t-22 9.5q53 29 84 83.5t31 121.5q0 106 -75 181t-181 75t-181 -75t-75 -181q0 -66 31 -121.5t84 -89.5q-135 -39 -221 -140t-86 -225q0 -49 23.5 -84t61.5 -55.5t98.5 -32.5
t121.5 -16t143 -4q96 0 141 6q14 0 23 9t9 23q4 10 -6 21t-20 11zM320 640q0 82 55 137t137 55t137 -55t55 -137t-55 -137t-137 -55t-137 55t-55 137z" />
    <glyph glyph-name="uniE616" unicode="&#xe616;" 
d="M872 744h-120v30q0 14 -8 22t-22 8t-22 -8t-8 -22v-30h-360v30q0 14 -8 22t-22 8t-22 -8t-8 -22v-30h-120q-27 0 -43.5 -15.5t-16.5 -38.5v-672q0 -23 16.5 -38.5t43.5 -15.5h720q27 0 43.5 15.5t16.5 38.5v672q0 23 -16.5 38.5t-43.5 15.5zM212 684h60v-30q0 -14 8 -22
t22 -8t22 8t8 22v30h360v-30q0 -14 8 -22t22 -8t22 8t8 22v30h60q27 0 43.5 -16.5t16.5 -43.5v-60h-720v60q0 27 16.5 43.5t43.5 16.5zM812 24h-600q-27 0 -43.5 16.5t-16.5 43.5v420h720v-420q0 -27 -16.5 -43.5t-43.5 -16.5zM272 414h-60q-14 0 -22 -8t-8 -22t8 -22t22 -8
h60q14 0 22 8t8 22t-8 22t-22 8zM452 414h-60q-14 0 -22 -8t-8 -22t8 -22t22 -8h60q14 0 22 8t8 22t-8 22t-22 8zM632 414h-60q-14 0 -22 -8t-8 -22t8 -22t22 -8h60q14 0 22 8t8 22t-8 22t-22 8zM812 414h-60q-14 0 -22 -8t-8 -22t8 -22t22 -8h60q14 0 22 8t8 22t-8 22
t-22 8zM272 294h-60q-14 0 -22 -8t-8 -22t8 -22t22 -8h60q14 0 22 8t8 22t-8 22t-22 8zM452 294h-60q-14 0 -22 -8t-8 -22t8 -22t22 -8h60q14 0 22 8t8 22t-8 22t-22 8zM632 294h-60q-14 0 -22 -8t-8 -22t8 -22t22 -8h60q14 0 22 8t8 22t-8 22t-22 8zM812 294h-60
q-14 0 -22 -8t-8 -22t8 -22t22 -8h60q14 0 22 8t8 22t-8 22t-22 8zM272 174h-60q-14 0 -22 -8t-8 -22t8 -22t22 -8h60q14 0 22 8t8 22t-8 22t-22 8zM452 174h-60q-14 0 -22 -8t-8 -22t8 -22t22 -8h60q14 0 22 8t8 22t-8 22t-22 8zM632 174h-60q-14 0 -22 -8t-8 -22t8 -22
t22 -8h60q14 0 22 8t8 22t-8 22t-22 8zM812 174h-60q-14 0 -22 -8t-8 -22t8 -22t22 -8h60q14 0 22 8t8 22t-8 22t-22 8z" />
    <glyph glyph-name="uniE617" unicode="&#xe617;" 
d="M860 472q-12 0 -21 -9t-9 -21v-375q0 -35 -24.5 -59.5t-59.5 -24.5h-470q-34 0 -58.5 24.5t-24.5 59.5v375q0 13 -9 21.5t-21.5 8.5t-21 -8.5t-8.5 -21.5v-375q0 -59 41.5 -100.5t99.5 -41.5h471q59 0 100.5 41.5t41.5 100.5v372q1 12 -7 22.5t-20 10.5zM435 95v214
q0 13 -8.5 21.5t-21 8.5t-21 -8.5t-8.5 -21.5v-213q0 -12 8.5 -20.5t21 -8.5t21 8.5t8.5 19.5zM649 95v214q0 13 -8.5 21.5t-21 8.5t-21 -8.5t-8.5 -21.5v-213q0 -12 8.5 -20.5t21 -8.5t21 8.5t8.5 19.5zM994 631h-281v91q0 50 -35.5 85.5t-85.5 35.5h-160
q-50 0 -85.5 -35.5t-35.5 -85.5v-90h-281q-13 0 -21.5 -9t-8.5 -21t8.5 -21t21.5 -9h964q13 0 21.5 9t8.5 21t-8.5 20.5t-21.5 8.5zM653 631h-282v91q0 25 18 43.5t44 18.5h160q25 0 43.5 -18t18.5 -44v-91h-2z" />
  </font>
</defs>
</svg>
